<svg width="128" height="128" viewBox="0 0 128 128" fill="none" xmlns="http://www.w3.org/2000/svg">
<g clip-path="url(#clip0)">
<g filter="url(#filter0_dii)">
<path fill-rule="evenodd" clip-rule="evenodd" d="M115.5 44.5784C115.5 43.3556 115.5 42.1328 115.493 40.9099C115.487 39.8798 115.475 38.8499 115.447 37.8203C115.386 35.5762 115.254 33.3128 114.855 31.0937C114.45 28.8426 113.789 26.7474 112.748 24.7021C111.724 22.6917 110.386 20.8521 108.79 19.2572C107.194 17.6624 105.354 16.3256 103.343 15.3022C101.296 14.2604 99.1984 13.5996 96.9447 13.195C94.7254 12.7965 92.4614 12.6644 90.2173 12.6037C89.1869 12.5759 88.1566 12.5641 87.1259 12.5577C85.9025 12.5502 84.679 12.5509 83.4555 12.5509L69.2496 12.5H58.6247L44.6701 12.5509C43.4443 12.5509 42.2184 12.5502 40.9925 12.5577C39.9598 12.5641 38.9276 12.5759 37.8952 12.6037C35.6458 12.6644 33.3767 12.7966 31.1521 13.1956C28.8955 13.6001 26.795 14.2606 24.7448 15.3017C22.7294 16.3252 20.8853 17.6621 19.2863 19.2572C17.6876 20.852 16.3475 22.6912 15.3216 24.7012C14.2771 26.7476 13.6149 28.8439 13.2091 31.0963C12.8096 33.3145 12.6772 35.5772 12.6164 37.8203C12.5886 38.85 12.5766 39.8799 12.5704 40.9099C12.5629 42.1329 12.5 43.652 12.5 44.8749L12.5004 58.6361L12.5 69.3748L12.5635 83.4284C12.5635 84.6529 12.563 85.8774 12.5704 87.1019C12.5766 88.1333 12.5886 89.1646 12.6165 90.1957C12.6772 92.4427 12.8099 94.7093 13.2097 96.9314C13.6154 99.1856 14.2775 101.284 15.3211 103.332C16.3471 105.345 17.6875 107.187 19.2863 108.784C20.8852 110.381 22.7288 111.72 24.7438 112.745C26.7953 113.788 28.8968 114.449 31.1547 114.854C33.3783 115.254 35.6467 115.386 37.8952 115.447C38.9276 115.474 39.9599 115.486 40.9927 115.493C42.2185 115.5 43.4443 115.5 44.6701 115.5L58.7508 115.5H69.4021L83.4555 115.499C84.679 115.499 85.9025 115.5 87.1259 115.493C88.1566 115.486 89.1869 115.474 90.2173 115.447C92.4623 115.386 94.727 115.253 96.9474 114.854C99.1996 114.449 101.296 113.788 103.342 112.745C105.354 111.72 107.194 110.381 108.79 108.784C110.386 107.187 111.723 105.345 112.747 103.333C113.79 101.284 114.45 99.1844 114.855 96.9288C115.254 94.7076 115.386 92.4418 115.447 90.1957C115.475 89.1645 115.487 88.1332 115.493 87.1019C115.501 85.8774 115.5 84.6529 115.5 83.4284C115.5 83.4284 115.499 69.6229 115.499 69.3748V58.6248C115.499 58.4416 115.5 44.5784 115.5 44.5784" fill="#FEFFFB"/>
<path fill-rule="evenodd" clip-rule="evenodd" d="M115.5 44.5784C115.5 43.3556 115.5 42.1328 115.493 40.9099C115.487 39.8798 115.475 38.8499 115.447 37.8203C115.386 35.5762 115.254 33.3128 114.855 31.0937C114.45 28.8426 113.789 26.7474 112.748 24.7021C111.724 22.6917 110.386 20.8521 108.79 19.2572C107.194 17.6624 105.354 16.3256 103.343 15.3022C101.296 14.2604 99.1984 13.5996 96.9447 13.195C94.7254 12.7965 92.4614 12.6644 90.2173 12.6037C89.1869 12.5759 88.1566 12.5641 87.1259 12.5577C85.9025 12.5502 84.679 12.5509 83.4555 12.5509L69.2496 12.5H58.6247L44.6701 12.5509C43.4443 12.5509 42.2184 12.5502 40.9925 12.5577C39.9598 12.5641 38.9276 12.5759 37.8952 12.6037C35.6458 12.6644 33.3767 12.7966 31.1521 13.1956C28.8955 13.6001 26.795 14.2606 24.7448 15.3017C22.7294 16.3252 20.8853 17.6621 19.2863 19.2572C17.6876 20.852 16.3475 22.6912 15.3216 24.7012C14.2771 26.7476 13.6149 28.8439 13.2091 31.0963C12.8096 33.3145 12.6772 35.5772 12.6164 37.8203C12.5886 38.85 12.5766 39.8799 12.5704 40.9099C12.5629 42.1329 12.5 43.652 12.5 44.8749L12.5004 58.6361L12.5 69.3748L12.5635 83.4284C12.5635 84.6529 12.563 85.8774 12.5704 87.1019C12.5766 88.1333 12.5886 89.1646 12.6165 90.1957C12.6772 92.4427 12.8099 94.7093 13.2097 96.9314C13.6154 99.1856 14.2775 101.284 15.3211 103.332C16.3471 105.345 17.6875 107.187 19.2863 108.784C20.8852 110.381 22.7288 111.72 24.7438 112.745C26.7953 113.788 28.8968 114.449 31.1547 114.854C33.3783 115.254 35.6467 115.386 37.8952 115.447C38.9276 115.474 39.9599 115.486 40.9927 115.493C42.2185 115.5 43.4443 115.5 44.6701 115.5L58.7508 115.5H69.4021L83.4555 115.499C84.679 115.499 85.9025 115.5 87.1259 115.493C88.1566 115.486 89.1869 115.474 90.2173 115.447C92.4623 115.386 94.727 115.253 96.9474 114.854C99.1996 114.449 101.296 113.788 103.342 112.745C105.354 111.72 107.194 110.381 108.79 108.784C110.386 107.187 111.723 105.345 112.747 103.333C113.79 101.284 114.45 99.1844 114.855 96.9288C115.254 94.7076 115.386 92.4418 115.447 90.1957C115.475 89.1645 115.487 88.1332 115.493 87.1019C115.501 85.8774 115.5 84.6529 115.5 83.4284C115.5 83.4284 115.499 69.6229 115.499 69.3748V58.6248C115.499 58.4416 115.5 44.5784 115.5 44.5784" fill="url(#paint0_linear)"/>
</g>
<circle cx="64.1163" cy="63.8838" r="40.6898" stroke="white" stroke-opacity="0.6" stroke-width="0.232513"/>
<circle cx="64.1163" cy="63.8838" r="32.5518" stroke="white" stroke-opacity="0.6" stroke-width="0.232513"/>
<path d="M77.1009 66.5329C77.103 67.7435 77.1027 68.954 77.1023 70.1646C77.102 71.3753 77.1016 72.5861 77.1037 73.7969C77.1023 74.2632 77.2199 74.7772 77.6317 75.0545M77.1009 66.5329L77.4495 66.5447C77.4495 66.5427 77.4496 66.5406 77.4497 66.5385M77.1009 66.5329L77.4497 66.5323C77.4497 66.5344 77.4497 66.5365 77.4497 66.5385M77.1009 66.5329C77.1625 64.7124 77.1485 62.8905 77.1023 61.0699C77.1121 60.0546 76.7984 58.9847 76.0436 58.2733L72.8336 57.0408C74.0262 56.822 75.3841 57.116 76.2871 58.0235C77.129 58.82 77.4602 59.9915 77.4511 61.0671C77.4973 62.8874 77.5113 64.7127 77.4497 66.5385M77.4497 66.5385C77.4518 67.7475 77.4514 68.9565 77.4511 70.165V70.1652C77.4507 71.3758 77.4504 72.5861 77.4525 73.7963L77.4525 73.7979C77.4512 74.2291 77.5633 74.587 77.8252 74.7643M77.8252 74.7643C77.8247 74.764 77.8242 74.7637 77.8237 74.7633L77.6317 75.0545M77.8252 74.7643C77.8256 74.7646 77.8261 74.7649 77.8265 74.7652L77.6317 75.0545M77.8252 74.7643C78.0582 74.9177 78.3208 75.0297 78.6119 75.1357C78.7065 75.1701 78.8082 75.2052 78.913 75.2414C79.1135 75.3106 79.3255 75.3837 79.5221 75.4641M77.6317 75.0545C77.9942 75.2936 78.4044 75.435 78.8142 75.5763C79.009 75.6435 79.2038 75.7106 79.3934 75.7883M79.3934 75.7883L79.5187 75.4628C79.5198 75.4632 79.521 75.4637 79.5221 75.4641M79.3934 75.7883C83.7907 77.4814 87.8575 80.0091 91.3879 83.1236C91.5531 83.2797 91.7232 83.4335 91.8938 83.5878C92.6407 84.2631 93.3994 84.9491 93.8121 85.8839M79.3934 75.7883L79.5256 75.4655C79.5244 75.465 79.5232 75.4646 79.5221 75.4641M79.5221 75.4641C83.9591 77.173 88.0601 79.7227 91.6187 82.8621L91.6276 82.87L91.6275 82.8701C91.7806 83.0148 91.9453 83.1639 92.1139 83.3164C92.4088 83.5832 92.7154 83.8607 92.9923 84.1439C93.4382 84.6001 93.8529 85.1141 94.1299 85.7403M94.1299 85.7403C94.1295 85.7394 94.1291 85.7384 94.1286 85.7375L93.8121 85.8839M94.1299 85.7403C94.1303 85.7412 94.1307 85.7421 94.1311 85.743L93.8121 85.8839M94.1299 85.7403C94.6413 86.8483 94.7729 88.3175 93.9696 89.4232L93.9674 89.4263C93.3974 90.1931 92.4991 90.9516 91.3834 90.9548L91.3818 90.9548C90.3144 90.9532 89.4204 90.3361 88.7291 89.7401L88.7256 89.737L88.7256 89.737C85.8065 87.1517 82.5797 84.9067 79.1183 83.1155L79.1104 83.1115L79.1028 83.107C78.6231 82.8272 77.9444 82.9888 77.6505 83.4531L77.6441 83.463L77.644 83.4629C77.5326 83.6263 77.4821 83.8225 77.4592 84.0677C77.4477 84.1907 77.4438 84.3179 77.4399 84.4565L77.4394 84.4771C77.4359 84.604 77.4321 84.7413 77.421 84.8768M93.8121 85.8839C94.2938 86.9258 94.3904 88.2506 93.6874 89.2183C93.1441 89.9493 92.336 90.6033 91.3823 90.6061C90.4483 90.6047 89.6374 90.0627 88.9568 89.4759C86.0173 86.8726 82.767 84.6109 79.2786 82.8058C78.64 82.4332 77.7521 82.6405 77.3558 83.2665C77.1139 83.6213 77.1023 84.0465 77.0908 84.4646C77.0872 84.5961 77.0836 84.7269 77.0729 84.8546M77.421 84.8768C77.4211 84.8745 77.4212 84.8723 77.4213 84.8701L77.0729 84.8546M77.421 84.8768C77.4208 84.8791 77.4206 84.8814 77.4204 84.8837L77.0729 84.8546M77.421 84.8768C77.2856 87.8815 76.0231 90.9115 73.6844 92.9011M77.0729 84.8546C76.9427 87.7814 75.7131 90.7181 73.457 92.6367M73.457 92.6367L73.6862 92.8996C73.6856 92.9001 73.685 92.9006 73.6844 92.9011M73.457 92.6367C71.2864 94.5286 68.3945 95.3871 65.5615 95.5677M73.457 92.6367L73.683 92.9024C73.6835 92.9019 73.6839 92.9015 73.6844 92.9011M73.6844 92.9011C71.4391 94.8573 68.4668 95.7315 65.5867 95.9156M65.5615 95.5677L65.5894 95.9154C65.5885 95.9155 65.5876 95.9155 65.5867 95.9156M65.5615 95.5677C63.0351 95.7708 60.3953 95.4389 58.1477 94.2037M65.5615 95.5677L65.5837 95.9158C65.5847 95.9157 65.5857 95.9157 65.5867 95.9156M65.5867 95.9156C63.0167 96.1218 60.3051 95.7867 57.9816 94.5104M58.1477 94.2037L57.9834 94.5114C57.9828 94.5111 57.9822 94.5107 57.9816 94.5104M58.1477 94.2037C56.1619 93.1436 54.5668 91.3945 53.6523 89.3401M58.1477 94.2037L57.9797 94.5094C57.9803 94.5097 57.9809 94.5101 57.9816 94.5104M57.9816 94.5104C55.9264 93.4127 54.2792 91.6051 53.3344 89.4835M53.6523 89.3401L53.3352 89.4852C53.3349 89.4846 53.3347 89.4841 53.3344 89.4835M53.6523 89.3401C52.9535 87.8122 52.6132 86.1359 52.56 84.461M53.6523 89.3401L53.3337 89.4819C53.334 89.4824 53.3342 89.483 53.3344 89.4835M53.3344 89.4835C52.6145 87.9088 52.2664 86.1879 52.2116 84.476M52.56 84.461L52.2118 84.48C52.2117 84.4787 52.2116 84.4773 52.2116 84.476M52.56 84.461C52.4172 81.8339 53.6874 79.3159 55.4393 77.4296M52.56 84.461L52.2114 84.4721C52.2115 84.4734 52.2115 84.4747 52.2116 84.476M52.2116 84.476C52.0635 81.7265 53.3915 79.122 55.1837 77.1922L55.1853 77.1905C56.9406 75.3253 59.4573 74.5082 61.8264 74.0715L61.8281 74.0711C63.9529 73.6908 66.1115 73.5867 68.2494 73.605C68.2498 73.605 68.2501 73.605 68.2505 73.605L68.2475 73.9537L55.4393 77.4296M55.4393 77.4296C57.117 75.6468 59.5425 74.8472 61.8896 74.4145L55.4393 77.4296ZM67.1273 87.546L67.1289 87.5453C68.1128 87.1204 68.9451 86.3304 69.3187 85.3451L67.1273 87.546ZM67.1273 87.546C65.811 88.1223 64.2983 88.1873 62.875 87.8809C61.7522 87.6176 60.7307 86.885 60.3622 85.8272C59.9852 84.7315 59.9751 83.4583 60.6349 82.5719C61.185 81.9229 62.0835 81.646 63.0004 81.5672C63.2216 81.5572 63.4423 81.5468 63.6627 81.5363C65.2818 81.4596 66.8802 81.3839 68.4709 81.5149L68.4754 81.5152C68.9757 81.55 69.4259 81.9325 69.5056 82.4058L69.5056 82.4058M67.1273 87.546L69.5056 82.4058M69.5056 82.4058L69.5067 82.412M69.5056 82.4058L69.5067 82.412M69.5067 82.412C69.6913 83.3978 69.6635 84.4282 69.3189 85.3444L69.5067 82.412Z" stroke="white" stroke-width="0.697539"/>
<path d="M77.7915 47.942L77.7915 47.942L77.7891 47.9408C77.0315 47.5822 76.1659 47.5045 75.3632 47.6662C73.9738 47.9406 72.7671 49.0594 72.4909 50.4821C72.2092 51.7175 72.7151 53.0471 73.6793 53.8306C74.0989 54.1867 74.6034 54.407 75.0476 54.601C75.1026 54.625 75.1568 54.6487 75.2098 54.6721C76.3068 55.1625 77.4036 55.6536 78.5005 56.1447C81.8532 57.6459 85.2067 59.1475 88.5687 60.629C89.5524 61.0792 90.6763 61.379 91.8128 61.2354C92.7651 61.1207 93.7897 60.7208 94.4227 59.8774L94.4339 59.8625L94.4434 59.8465C94.8067 59.2367 94.8987 58.4866 94.7181 57.8091C94.3953 56.5207 93.4113 55.4814 92.2551 54.935C90.9441 54.3011 89.6332 53.667 88.3223 53.0329C84.8125 51.3352 81.3027 49.6374 77.7915 47.942Z" stroke="white" stroke-width="0.697539"/>
<path d="M55.7852 34.6364L55.7729 34.6378L55.7607 34.6401C53.6452 35.0412 52.4681 37.1558 52.1939 39.0101C51.9249 40.3207 51.7623 41.6512 51.6017 42.965C51.572 43.208 51.5423 43.4506 51.5121 43.6923C51.3171 45.2509 51.0969 46.7833 50.6781 48.2736L50.6781 48.2736L50.6772 48.277C50.5487 48.7528 50.0191 49.0646 49.4637 49.0309L49.4548 49.0304L49.4459 49.0303L49.2415 49.0284C46.3734 49.001 43.5001 48.9735 40.6277 49.0023L40.6148 49.0024L40.602 49.0035C39.2379 49.118 37.6416 49.5535 36.7321 50.8197L36.7219 50.8338L36.7132 50.8488C36.3478 51.482 36.2002 52.2797 36.3095 53.0215C36.4191 53.7653 36.7938 54.4843 37.5066 54.9065C38.2315 55.3566 39.0232 55.481 39.7887 55.5087C40.1572 55.522 40.5285 55.513 40.8858 55.5044L40.927 55.5034C41.3 55.4944 41.6574 55.4867 42.0039 55.5026C42.8413 55.5567 43.6761 55.5415 44.4955 55.5234C44.5391 55.5224 44.5827 55.5214 44.6263 55.5205C45.4035 55.5031 46.1663 55.486 46.9271 55.522C47.2636 55.554 47.547 55.77 47.7111 56.0813C47.8772 56.3965 47.9009 56.7728 47.752 57.0808L47.747 57.0912L47.7426 57.1019C44.8203 64.3344 41.1591 71.282 36.6875 77.6734L36.68 77.6842L36.6732 77.6956C35.9008 78.9996 36.1196 80.7847 37.2148 81.8486L37.2149 81.8486C38.298 82.9006 39.9157 83.0943 41.2682 82.8064L41.2682 82.8065L41.2746 82.805C41.9069 82.6579 42.7039 82.3981 43.1589 81.7182L43.159 81.718C44.0368 80.4048 44.8225 79.0362 45.5852 77.6678L45.5862 77.666C49.6124 70.338 52.9904 62.6666 55.8385 54.814L55.8425 54.8029L55.8458 54.7915C55.9704 54.3582 56.3914 54.0512 56.8348 54.0716L56.8458 54.0721L56.8569 54.0719C59.9782 54.0172 63.2167 53.8501 66.2303 52.7164L66.2304 52.7165L66.2385 52.7132C66.3882 52.6526 66.5477 52.5917 66.712 52.5291C67.0703 52.3924 67.4513 52.247 67.8021 52.0767C68.3263 51.8221 68.838 51.4889 69.2301 50.978C70.3828 49.5089 70.6503 47.493 70.1943 45.7479C69.9963 44.9652 69.354 44.356 68.5899 44.1586C67.4838 43.8197 66.3176 44.146 65.42 44.7196C65.0565 44.9413 64.6999 45.1683 64.3462 45.3937C62.9353 46.2921 61.5687 47.1624 59.9843 47.5517L59.9843 47.5517L59.9795 47.553C59.4384 47.6941 58.8044 47.2764 58.7053 46.7163L58.7055 46.7163L58.703 46.7045C58.6664 46.5325 58.6807 46.351 58.7256 46.1388C58.7482 46.0324 58.7768 45.9247 58.8083 45.8076L58.8122 45.7932C58.8415 45.6844 58.8732 45.5667 58.8992 45.4481C59.4163 43.3189 59.8499 41.1608 60.1388 38.9806L60.139 38.9806L60.1401 38.9697C60.2511 37.8683 60.2888 36.3829 59.3044 35.4098L59.29 35.3955L59.274 35.383C58.2701 34.5987 56.9104 34.505 55.7852 34.6364Z" stroke="white" stroke-width="0.697539"/>
<rect x="19.875" y="19.875" width="88.25" height="88.25" rx="17.976" stroke="white" stroke-width="1.25"/>
<g filter="url(#filter1_d)">
<path d="M71.1555 105.121L62.0913 100.335L59.0362 117.098L71.1555 105.121Z" fill="url(#paint1_linear)"/>
<rect x="86.8867" y="51.2314" width="12.5" height="28.125" transform="rotate(27.8334 86.8867 51.2314)" fill="#C4C4C4"/>
<rect x="86.8867" y="51.2314" width="12.5" height="28.125" transform="rotate(27.8334 86.8867 51.2314)" fill="url(#paint2_linear)"/>
<rect x="86.8867" y="51.2314" width="12.5" height="2" transform="rotate(27.8334 86.8867 51.2314)" fill="black" fill-opacity="0.16"/>
<path d="M108.557 11.6049C109.297 10.3131 110.871 9.75866 112.257 10.3023L117.244 12.2591C118.873 12.8982 119.612 14.7902 118.847 16.3639L98.8249 57.5346L86.113 50.8228L108.557 11.6049Z" fill="#C4C4C4"/>
<path d="M108.557 11.6049C109.297 10.3131 110.871 9.75866 112.257 10.3023L117.244 12.2591C118.873 12.8982 119.612 14.7902 118.847 16.3639L98.8249 57.5346L86.113 50.8228L108.557 11.6049Z" fill="url(#paint3_linear)"/>
<path d="M73.7549 76.1025L84.8087 81.9388L72.3775 105.484C71.9907 106.216 71.0832 106.496 70.3506 106.11L61.9497 101.674C61.2171 101.287 60.9368 100.38 61.3236 99.6473L73.7549 76.1025Z" fill="#C4C4C4"/>
<path d="M73.7549 76.1025L84.8087 81.9388L72.3775 105.484C71.9907 106.216 71.0832 106.496 70.3506 106.11L61.9497 101.674C61.2171 101.287 60.9368 100.38 61.3236 99.6473L73.7549 76.1025Z" fill="url(#paint4_linear)"/>
<g filter="url(#filter2_d)">
<path d="M107.102 11.3005C107.563 10.4478 108.625 10.1254 109.482 10.578V10.578C110.339 11.0305 110.672 12.089 110.227 12.9504L94.2426 43.9484C93.7062 44.9886 92.4243 45.3913 91.3895 44.8449V44.8449C90.3546 44.2985 89.9642 43.0128 90.5206 41.9833L107.102 11.3005Z" fill="#C4C4C4"/>
<path d="M107.102 11.3005C107.563 10.4478 108.625 10.1254 109.482 10.578V10.578C110.339 11.0305 110.672 12.089 110.227 12.9504L94.2426 43.9484C93.7062 44.9886 92.4243 45.3913 91.3895 44.8449V44.8449C90.3546 44.2985 89.9642 43.0128 90.5206 41.9833L107.102 11.3005Z" fill="url(#paint5_linear)"/>
</g>
</g>
</g>
<defs>
<filter id="filter0_dii" x="11.25" y="12.125" width="105.5" height="105.875" filterUnits="userSpaceOnUse" color-interpolation-filters="sRGB">
<feFlood flood-opacity="0" result="BackgroundImageFix"/>
<feColorMatrix in="SourceAlpha" type="matrix" values="0 0 0 0 0 0 0 0 0 0 0 0 0 0 0 0 0 0 127 0"/>
<feOffset dy="1.25"/>
<feGaussianBlur stdDeviation="0.625"/>
<feColorMatrix type="matrix" values="0 0 0 0 0 0 0 0 0 0 0 0 0 0 0 0 0 0 0.3 0"/>
<feBlend mode="normal" in2="BackgroundImageFix" result="effect1_dropShadow"/>
<feBlend mode="normal" in="SourceGraphic" in2="effect1_dropShadow" result="shape"/>
<feColorMatrix in="SourceAlpha" type="matrix" values="0 0 0 0 0 0 0 0 0 0 0 0 0 0 0 0 0 0 127 0" result="hardAlpha"/>
<feOffset dy="0.5"/>
<feGaussianBlur stdDeviation="0.125"/>
<feComposite in2="hardAlpha" operator="arithmetic" k2="-1" k3="1"/>
<feColorMatrix type="matrix" values="0 0 0 0 1 0 0 0 0 1 0 0 0 0 1 0 0 0 0.4 0"/>
<feBlend mode="normal" in2="shape" result="effect2_innerShadow"/>
<feColorMatrix in="SourceAlpha" type="matrix" values="0 0 0 0 0 0 0 0 0 0 0 0 0 0 0 0 0 0 127 0" result="hardAlpha"/>
<feOffset dy="-0.375"/>
<feGaussianBlur stdDeviation="0.25"/>
<feComposite in2="hardAlpha" operator="arithmetic" k2="-1" k3="1"/>
<feColorMatrix type="matrix" values="0 0 0 0 0 0 0 0 0 0 0 0 0 0 0 0 0 0 0.25 0"/>
<feBlend mode="normal" in2="effect2_innerShadow" result="effect3_innerShadow"/>
</filter>
<filter id="filter1_d" x="44.8839" y="4.27856" width="84.5603" height="128.649" filterUnits="userSpaceOnUse" color-interpolation-filters="sRGB">
<feFlood flood-opacity="0" result="BackgroundImageFix"/>
<feColorMatrix in="SourceAlpha" type="matrix" values="0 0 0 0 0 0 0 0 0 0 0 0 0 0 0 0 0 0 127 0"/>
<feOffset dy="4.64466"/>
<feGaussianBlur stdDeviation="3.87055"/>
<feColorMatrix type="matrix" values="0 0 0 0 0 0 0 0 0 0 0 0 0 0 0 0 0 0 0.35 0"/>
<feBlend mode="normal" in2="BackgroundImageFix" result="effect1_dropShadow"/>
<feBlend mode="normal" in="SourceGraphic" in2="effect1_dropShadow" result="shape"/>
</filter>
<filter id="filter2_d" x="87.1706" y="8.82495" width="26.3501" height="40.9085" filterUnits="userSpaceOnUse" color-interpolation-filters="sRGB">
<feFlood flood-opacity="0" result="BackgroundImageFix"/>
<feColorMatrix in="SourceAlpha" type="matrix" values="0 0 0 0 0 0 0 0 0 0 0 0 0 0 0 0 0 0 127 0"/>
<feOffset dy="1.54822"/>
<feGaussianBlur stdDeviation="1.54822"/>
<feColorMatrix type="matrix" values="0 0 0 0 0 0 0 0 0 0 0 0 0 0 0 0 0 0 0.25 0"/>
<feBlend mode="normal" in2="BackgroundImageFix" result="effect1_dropShadow"/>
<feBlend mode="normal" in="SourceGraphic" in2="effect1_dropShadow" result="shape"/>
</filter>
<linearGradient id="paint0_linear" x1="43.0407" y1="111.438" x2="43.0407" y2="16.6919" gradientUnits="userSpaceOnUse">
<stop stop-color="#BA3C12"/>
<stop offset="1" stop-color="#F2845F"/>
</linearGradient>
<linearGradient id="paint1_linear" x1="68.412" y1="112.86" x2="60.1385" y2="103.734" gradientUnits="userSpaceOnUse">
<stop offset="0.102562" stop-color="#626B6A"/>
<stop offset="0.435624" stop-color="#F7FFFF"/>
</linearGradient>
<linearGradient id="paint2_linear" x1="98.7773" y1="64.1217" x2="89.6677" y2="63.9674" gradientUnits="userSpaceOnUse">
<stop stop-color="#995100"/>
<stop offset="0.0729167" stop-color="#EF7E00"/>
<stop offset="0.588542" stop-color="#EAB326"/>
<stop offset="1" stop-color="#FFEB72"/>
</linearGradient>
<linearGradient id="paint3_linear" x1="109.812" y1="32.7444" x2="101.311" y2="28.9011" gradientUnits="userSpaceOnUse">
<stop stop-color="#763E00"/>
<stop offset="0.0572917" stop-color="#BF6500"/>
<stop offset="0.260417" stop-color="#EF7E00"/>
<stop offset="0.588542" stop-color="#EAB326"/>
<stop offset="1" stop-color="#FFEB72"/>
</linearGradient>
<linearGradient id="paint4_linear" x1="76.0718" y1="97.017" x2="64.0965" y2="90.4324" gradientUnits="userSpaceOnUse">
<stop stop-color="#171813"/>
<stop offset="0.666667" stop-color="#747474"/>
<stop offset="0.984375" stop-color="#232323"/>
</linearGradient>
<linearGradient id="paint5_linear" x1="102.804" y1="27.3325" x2="100.071" y2="25.8745" gradientUnits="userSpaceOnUse">
<stop stop-color="#D2C79A"/>
<stop offset="0.588542" stop-color="#EEEEEE"/>
<stop offset="1" stop-color="#E6E6E6"/>
</linearGradient>
<clipPath id="clip0">
<rect width="128" height="128" fill="white"/>
</clipPath>
</defs>
</svg>
